<svg xmlns="http://www.w3.org/2000/svg" viewBox="0 0 1170 2532" width="1170" height="2532">
  <rect width="1170" height="2532" fill="#121317"/>
  
  <text x="96" y="104" font-family="-apple-system, 'SF Pro Display', 'Segoe UI', Helvetica, Arial, sans-serif" font-size="46" font-weight="600" fill="#f4f4f6">9:41</text>
  <g fill="#f4f4f6">
    <rect x="890" y="72" width="12" height="30" rx="3" opacity=".9"/><rect x="910" y="64" width="12" height="38" rx="3"/>
    <rect x="930" y="56" width="12" height="46" rx="3"/><rect x="950" y="48" width="12" height="54" rx="3" opacity=".35"/>
    <rect x="990" y="56" width="86" height="44" rx="12" fill="none" stroke="#f4f4f6" stroke-width="4" opacity=".5"/>
    <rect x="997" y="63" width="60" height="30" rx="7"/>
  </g>
  <path d="M110 214l-34 34 34 34" fill="none" stroke="#f4f4f6" stroke-width="10" stroke-linecap="round" stroke-linejoin="round"/>
  <rect x="170" y="186" width="760" height="100" rx="50" fill="#1c1d23"/>
  <circle cx="232" cy="234" r="20" fill="none" stroke="#9a9ca6" stroke-width="7"/><path d="M247 250l18 18" stroke="#9a9ca6" stroke-width="7" stroke-linecap="round"/>
  <text x="286" y="250" font-family="-apple-system, 'SF Pro Display', 'Segoe UI', Helvetica, Arial, sans-serif" font-size="42" fill="#9a9ca6">Search</text>
  <path d="M990 206h22l20 76h92l18-56h-122" fill="none" stroke="#f4f4f6" stroke-width="8" stroke-linejoin="round"/>
  <circle cx="1046" cy="306" r="11" fill="#f4f4f6"/><circle cx="1110" cy="306" r="11" fill="#f4f4f6"/>
  <rect x="0" y="340" width="1170" height="1300" fill="#1c1d23"/>
  <g transform="translate(0 340)">
  <defs>
    <linearGradient id="box" x1="0" y1="0" x2="1" y2="1"><stop offset="0" stop-color="#0b1d3a"/><stop offset="1" stop-color="#1e3c72"/></linearGradient>
    <linearGradient id="panel" x1="0" y1="0" x2="0" y2="1"><stop offset="0" stop-color="#4ea8de"/><stop offset="1" stop-color="#1b5e9c"/></linearGradient>
  </defs>
  <rect width="1170" height="1300" fill="#eef1f6"/>
  <rect x="140" y="230" width="890" height="860" rx="20" fill="url(#box)"/>
  <circle cx="180" cy="270" r="2" fill="#fff" opacity=".7"/><circle cx="377" cy="401" r="3" fill="#fff" opacity=".7"/><circle cx="574" cy="532" r="4" fill="#fff" opacity=".7"/><circle cx="771" cy="663" r="2" fill="#fff" opacity=".7"/><circle cx="968" cy="794" r="3" fill="#fff" opacity=".7"/><circle cx="345" cy="925" r="4" fill="#fff" opacity=".7"/><circle cx="542" cy="276" r="2" fill="#fff" opacity=".7"/><circle cx="739" cy="407" r="3" fill="#fff" opacity=".7"/><circle cx="936" cy="538" r="4" fill="#fff" opacity=".7"/><circle cx="313" cy="669" r="2" fill="#fff" opacity=".7"/><circle cx="510" cy="800" r="3" fill="#fff" opacity=".7"/><circle cx="707" cy="931" r="4" fill="#fff" opacity=".7"/><circle cx="904" cy="282" r="2" fill="#fff" opacity=".7"/><circle cx="281" cy="413" r="3" fill="#fff" opacity=".7"/><circle cx="478" cy="544" r="4" fill="#fff" opacity=".7"/><circle cx="675" cy="675" r="2" fill="#fff" opacity=".7"/><circle cx="872" cy="806" r="3" fill="#fff" opacity=".7"/><circle cx="249" cy="937" r="4" fill="#fff" opacity=".7"/><circle cx="446" cy="288" r="2" fill="#fff" opacity=".7"/><circle cx="643" cy="419" r="3" fill="#fff" opacity=".7"/><circle cx="840" cy="550" r="4" fill="#fff" opacity=".7"/><circle cx="217" cy="681" r="2" fill="#fff" opacity=".7"/><circle cx="414" cy="812" r="3" fill="#fff" opacity=".7"/><circle cx="611" cy="943" r="4" fill="#fff" opacity=".7"/><circle cx="808" cy="294" r="2" fill="#fff" opacity=".7"/><circle cx="185" cy="425" r="3" fill="#fff" opacity=".7"/><circle cx="382" cy="556" r="4" fill="#fff" opacity=".7"/><circle cx="579" cy="687" r="2" fill="#fff" opacity=".7"/><circle cx="776" cy="818" r="3" fill="#fff" opacity=".7"/><circle cx="973" cy="949" r="4" fill="#fff" opacity=".7"/><circle cx="350" cy="300" r="2" fill="#fff" opacity=".7"/><circle cx="547" cy="431" r="3" fill="#fff" opacity=".7"/><circle cx="744" cy="562" r="4" fill="#fff" opacity=".7"/><circle cx="941" cy="693" r="2" fill="#fff" opacity=".7"/><circle cx="318" cy="824" r="3" fill="#fff" opacity=".7"/><circle cx="515" cy="955" r="4" fill="#fff" opacity=".7"/><circle cx="712" cy="306" r="2" fill="#fff" opacity=".7"/><circle cx="909" cy="437" r="3" fill="#fff" opacity=".7"/><circle cx="286" cy="568" r="4" fill="#fff" opacity=".7"/><circle cx="483" cy="699" r="2" fill="#fff" opacity=".7"/>
  <circle cx="860" cy="380" r="90" fill="#f4a261" opacity=".9"/>
  <g transform="translate(585 690)">
    <rect x="-60" y="-200" width="120" height="400" rx="20" fill="#e5e5e5"/>
    <rect x="-60" y="-200" width="120" height="40" rx="10" fill="#c1121f"/>
    <rect x="-200" y="-30" width="400" height="60" rx="14" fill="#d9d9d9"/>
    <g transform="translate(-330 0)">
      <rect x="-120" y="-170" width="240" height="100" rx="8" fill="url(#panel)" stroke="#9ecbf0" stroke-width="5"/><rect x="-120" y="-55" width="240" height="100" rx="8" fill="url(#panel)" stroke="#9ecbf0" stroke-width="5"/><rect x="-120" y="60" width="240" height="100" rx="8" fill="url(#panel)" stroke="#9ecbf0" stroke-width="5"/>
      <rect x="-12" y="-180" width="24" height="360" fill="#bdbdbd"/></g><g transform="translate(330 0)">
      <rect x="-120" y="-170" width="240" height="100" rx="8" fill="url(#panel)" stroke="#9ecbf0" stroke-width="5"/><rect x="-120" y="-55" width="240" height="100" rx="8" fill="url(#panel)" stroke="#9ecbf0" stroke-width="5"/><rect x="-120" y="60" width="240" height="100" rx="8" fill="url(#panel)" stroke="#9ecbf0" stroke-width="5"/>
      <rect x="-12" y="-180" width="24" height="360" fill="#bdbdbd"/></g>
    <circle cx="-30" cy="-120" r="12" fill="#bdbdbd"/><circle cx="0" cy="-120" r="12" fill="#bdbdbd"/><circle cx="30" cy="-120" r="12" fill="#bdbdbd"/>
  </g>
  <rect x="140" y="230" width="890" height="110" fill="#c1121f"/>
  <text x="190" y="306" font-family="-apple-system, 'SF Pro Display', 'Segoe UI', Helvetica, Arial, sans-serif" font-size="54" font-weight="800" fill="#fff" letter-spacing="4">SPACE STATION</text>
  <text x="980" y="306" text-anchor="end" font-family="-apple-system, 'SF Pro Display', 'Segoe UI', Helvetica, Arial, sans-serif" font-size="44" font-weight="700" fill="#ffd23f">9+</text>
  <text x="190" y="1060" font-family="-apple-system, 'SF Pro Display', 'Segoe UI', Helvetica, Arial, sans-serif" font-size="40" font-weight="700" fill="#fff" opacity=".85">1,024 pieces</text></g>
  <g><circle cx="505" cy="1600" r="10" fill="#f4f4f6" opacity="1"/><circle cx="545" cy="1600" r="10" fill="#9a9ca6" opacity="0.4"/><circle cx="585" cy="1600" r="10" fill="#9a9ca6" opacity="0.4"/><circle cx="625" cy="1600" r="10" fill="#9a9ca6" opacity="0.4"/><circle cx="665" cy="1600" r="10" fill="#9a9ca6" opacity="0.4"/></g>
  <text x="96" y="1742" font-family="-apple-system, 'SF Pro Display', 'Segoe UI', Helvetica, Arial, sans-serif" font-size="40" fill="#ffd23f" font-weight="600">BrickWorks</text>
  <text x="96" y="1822" font-family="-apple-system, 'SF Pro Display', 'Segoe UI', Helvetica, Arial, sans-serif" font-size="62" font-weight="700" fill="#f4f4f6">Space Station Building Set</text><text x="96" y="1894" font-family="-apple-system, 'SF Pro Display', 'Segoe UI', Helvetica, Arial, sans-serif" font-size="62" font-weight="700" fill="#f4f4f6">(1,024 pcs)</text>
  <path transform="translate(96 1946) scale(1.9)" d="M10 1l2.9 6 6.6.9-4.8 4.6 1.2 6.5L10 16l-5.9 3 1.2-6.5L.5 7.9 7.1 7z" fill="#f5a623"/><path transform="translate(148 1946) scale(1.9)" d="M10 1l2.9 6 6.6.9-4.8 4.6 1.2 6.5L10 16l-5.9 3 1.2-6.5L.5 7.9 7.1 7z" fill="#f5a623"/><path transform="translate(200 1946) scale(1.9)" d="M10 1l2.9 6 6.6.9-4.8 4.6 1.2 6.5L10 16l-5.9 3 1.2-6.5L.5 7.9 7.1 7z" fill="#f5a623"/><path transform="translate(252 1946) scale(1.9)" d="M10 1l2.9 6 6.6.9-4.8 4.6 1.2 6.5L10 16l-5.9 3 1.2-6.5L.5 7.9 7.1 7z" fill="#f5a623"/><path transform="translate(304 1946) scale(1.9)" d="M10 1l2.9 6 6.6.9-4.8 4.6 1.2 6.5L10 16l-5.9 3 1.2-6.5L.5 7.9 7.1 7z" fill="#f5a623"/>
  <text x="370" y="1982" font-family="-apple-system, 'SF Pro Display', 'Segoe UI', Helvetica, Arial, sans-serif" font-size="40" fill="#9a9ca6">4.9 · 640 ratings</text>
  <text x="96" y="2124" font-family="-apple-system, 'SF Pro Display', 'Segoe UI', Helvetica, Arial, sans-serif" font-size="96" font-weight="700" fill="#f4f4f6">$89.99</text>
  <text x="96" y="2192" font-family="-apple-system, 'SF Pro Display', 'Segoe UI', Helvetica, Arial, sans-serif" font-size="40" fill="#2e9e5b" font-weight="600">In stock · Free delivery Tue</text>
  <rect x="96" y="2262" width="978" height="128" rx="64" fill="#ffd23f"/>
  <text x="585" y="2343" text-anchor="middle" font-family="-apple-system, 'SF Pro Display', 'Segoe UI', Helvetica, Arial, sans-serif" font-size="48" font-weight="700" fill="#111">Add to cart</text>
  <rect x="420" y="2480" width="330" height="14" rx="7" fill="#f4f4f6" opacity=".85"/>
</svg>
